<?xml version="1.0" encoding="utf-8"?>
<!-- Generator: Adobe Illustrator 23.0.1, SVG Export Plug-In . SVG Version: 6.00 Build 0)  -->
<svg version="1.1" id="Capa_1" xmlns="http://www.w3.org/2000/svg" xmlns:xlink="http://www.w3.org/1999/xlink" x="0px" y="0px"
	 viewBox="0 0 800 374.97" style="enable-background:new 0 0 800 374.97;" xml:space="preserve">
<style type="text/css">
	.st0{fill:#A01127;}
	.st1{fill:#CB6120;}
</style>
<g>
	<path d="M1648.57,130.93c-4.93-3.25-11.13-4.87-18.59-4.87c-4.34,0-8.66,0.54-12.99,1.62c-4.33,1.08-8.43,2.71-12.27,4.87
		c-2.65,21.42-5.54,42.54-8.66,63.35c-3.13,20.82-6.38,40.73-9.74,59.74h-1.81c-0.96-3.85-2.34-9.26-4.15-16.24
		c-1.8-6.97-3.91-14.92-6.32-23.82c-2.41-8.9-5.05-18.59-7.94-29.06c-2.89-10.47-5.9-21.11-9.02-31.95
		c-1.45-5.05-4.87-8.84-10.28-11.37c-5.42-2.53-11.98-3.79-19.68-3.79c-6.26,0-11.61,0.67-16.06,1.99
		c-4.46,1.33-8.72,3.19-12.81,5.59c-2.89,11.31-5.84,22.56-8.84,33.75c-3.01,11.19-5.84,21.66-8.48,31.4
		c-2.65,9.75-4.94,18.47-6.86,26.17c-1.93,7.7-3.37,13.48-4.33,17.33h-1.45c-0.48-2.89-1.26-6.91-2.35-12.09
		c-1.08-5.17-2.34-11.97-3.79-20.39c-1.44-8.42-3.07-18.65-4.87-30.68c-1.81-12.03-3.92-26.97-6.32-43.81
		c-1.21-8.42-4.21-14.38-9.02-17.87c-4.82-3.49-11.07-4.64-18.77-4.64c-2.61,0-8.89,0-15.16,0h-16.31h-33.5v-16.34
		c0-9.87-2.35-16.66-7.04-20.4c-4.69-3.73-12.33-5.59-22.92-5.59c-5.05,0-9.75,0.42-14.08,1.26c-4.33,0.85-7.82,1.62-10.47,2.35
		v90.59c-0.23-0.66-0.47-1.32-0.72-1.97c-4.33-11.42-10.29-20.99-17.87-28.69c-7.58-7.7-16.55-13.48-26.89-17.33
		c-10.35-3.85-21.42-5.78-33.21-5.78c-7.46,0-14.32,0.78-20.58,2.34c-6.26,1.57-11.79,3.43-16.6,5.59V91.04
		c0-10.11-2.35-16.96-7.04-20.58c-4.69-3.61-12.45-5.41-23.28-5.41c-5.3,0-10.11,0.36-14.44,1.08c-4.33,0.72-7.82,1.44-10.47,2.17
		v194.56c0,11.32,5.17,20.46,15.52,27.43c7.22,5.05,16.24,9.39,27.07,12.99c10.83,3.61,23.82,5.42,38.99,5.42
		c14.44,0,27.49-1.99,39.16-5.96c11.67-3.97,21.66-9.86,29.96-17.69c8.3-7.82,14.74-17.51,19.31-29.06c0.4-1.01,0.77-2.03,1.13-3.06
		c0.59,19.16,6.22,33.12,16.91,41.87c11.31,9.26,27.07,13.9,47.28,13.9c16.36,0,27.85-2.71,34.47-8.12
		c6.62-5.41,9.93-12.33,9.93-20.75c0-4.09-0.72-7.7-2.16-10.83c-1.44-3.12-3.25-5.89-5.42-8.3c-2.89,1.21-6.38,2.23-10.47,3.07
		c-4.09,0.84-7.94,1.26-11.55,1.26c-7.7,0-13.71-1.5-18.05-4.51c-4.33-3.01-6.5-7.88-6.5-14.62v-70.03h36.46
		c2.37,0,4.53-0.33,6.53-0.94c0.47,2.33,0.92,4.51,1.32,6.48c3.12,15.4,5.81,27.19,9.31,42.11c3.49,14.92,7.04,28.64,10.65,41.15
		c3.61,12.52,6.73,21.66,9.38,27.43c2.17,4.82,6.5,8.43,13,10.83c6.5,2.4,14.07,3.61,22.74,3.61c14.2,0,24.55-2.89,31.04-8.66
		c1.44-4.81,3.37-10.95,5.78-18.41c2.4-7.46,4.93-15.64,7.58-24.55c2.65-8.9,5.29-18.05,7.94-27.43c2.65-9.38,5.05-18.53,7.22-27.43
		c1.68,8.66,3.73,17.51,6.14,26.53c2.4,9.02,4.87,17.69,7.4,25.99c2.53,8.3,4.99,15.95,7.4,22.92c2.4,6.99,4.45,12.88,6.14,17.69
		c3.12,8.91,13.83,13.36,32.12,13.36c7.22,0,13.96-0.78,20.21-2.35c6.26-1.56,10.7-3.66,13.35-6.32c1.68-4.33,3.79-10.58,6.32-18.77
		c2.53-8.18,5.11-17.2,7.76-27.07c2.65-9.87,5.29-20.15,7.95-30.86c2.64-10.7,4.99-20.87,7.04-30.5c2.04-9.62,3.73-18.28,5.05-25.99
		c1.32-7.7,1.98-13.36,1.98-16.97C1655.97,139.77,1653.5,134.18,1648.57,130.93z M1242.12,252.76c-7.1,8.18-16.67,12.27-28.69,12.27
		c-5.77,0-10.83-0.6-15.16-1.81c-4.33-1.2-7.94-2.76-10.83-4.69v-82.66c3.85-2.4,8-4.39,12.45-5.96c4.45-1.56,9.44-2.35,14.98-2.35
		c11.55,0,20.76,3.85,27.62,11.55c6.86,7.71,10.29,19.98,10.29,36.82C1252.77,232.31,1249.22,244.58,1242.12,252.76z"/>
	<g>
		<path class="st0" d="M1373.02,209.53c0,0-0.24,0.15-0.7,0.45c-0.47,0.29-1.16,0.74-2.09,1.27c-0.92,0.54-2.07,1.19-3.44,1.91
			c-1.36,0.74-2.95,1.54-4.74,2.41c-3.58,1.74-8.01,3.7-13.2,5.69c-2.59,1.03-5.38,1.97-8.34,2.99c-2.96,0.99-6.1,1.93-9.4,2.87
			c-6.6,1.88-13.87,3.53-21.65,4.88c-7.79,1.34-16.1,2.3-24.76,2.79c-8.66,0.45-17.68,0.42-26.84-0.28
			c-9.15-0.72-18.45-2.02-27.61-4.07c-9.16-2.06-18.2-4.79-26.85-8.17c-8.65-3.36-16.86-7.45-24.45-11.95
			c-7.59-4.51-14.53-9.48-20.71-14.62c-1.52-1.32-3.07-2.55-4.49-3.88c-1.43-1.33-2.85-2.61-4.21-3.91
			c-1.32-1.34-2.63-2.65-3.9-3.94c-1.27-1.29-2.45-2.63-3.61-3.92c-0.58-0.65-1.15-1.29-1.72-1.92c-0.54-0.65-1.08-1.3-1.61-1.94
			c-1.06-1.28-2.11-2.5-3.07-3.75c-0.95-1.26-1.87-2.49-2.77-3.68c-0.44-0.6-0.88-1.18-1.31-1.76c-0.41-0.6-0.81-1.19-1.2-1.77
			c-1.57-2.32-3.06-4.45-4.27-6.55c-1.25-2.06-2.41-3.93-3.33-5.72c-0.95-1.76-1.8-3.31-2.49-4.7c-0.68-1.4-1.23-2.59-1.67-3.56
			c-0.45-0.96-0.77-1.72-1-2.22c-0.22-0.5-0.33-0.76-0.33-0.76s0.22,0.18,0.64,0.54c0.42,0.36,1.06,0.88,1.85,1.58
			c0.8,0.69,1.79,1.55,2.91,2.57c1.16,0.99,2.51,2.12,3.98,3.4c1.47,1.28,3.13,2.66,4.92,4.14c0.45,0.37,0.91,0.75,1.37,1.13
			c0.46,0.39,0.92,0.79,1.42,1.18c0.98,0.78,1.99,1.58,3.04,2.42c2.06,1.69,4.35,3.37,6.7,5.17c1.2,0.87,2.42,1.77,3.68,2.69
			c0.62,0.46,1.26,0.92,1.89,1.39c0.65,0.45,1.32,0.9,1.98,1.35c1.35,0.89,2.65,1.88,4.07,2.78c1.39,0.91,2.81,1.85,4.25,2.79
			c1.46,0.91,2.95,1.83,4.46,2.76c1.5,0.93,3.08,1.81,4.63,2.74c6.29,3.63,13.05,7.15,20.19,10.38c7.14,3.23,14.65,6.2,22.43,8.78
			c7.78,2.58,15.82,4.79,23.98,6.62c8.15,1.83,16.43,3.23,24.65,4.33c8.23,1.07,16.4,1.78,24.38,2.27
			c15.95,0.9,31.06,0.75,44.14,0.22c6.54-0.26,12.56-0.63,17.93-1.01c5.37-0.37,10.07-0.79,13.96-1.14
			c3.89-0.36,6.97-0.67,9.07-0.89C1371.89,209.66,1373.02,209.53,1373.02,209.53z"/>
		<g>
			<path class="st1" d="M1405.04,193.7c-3.73,0.93-7.02,1.87-9.84,2.78c-3.79,1.2-6.72,2.32-8.69,3.13
				c-0.99,0.39-1.73,0.74-2.24,0.97c-0.5,0.23-0.76,0.35-0.76,0.35s1.14,0.02,3.25,0.1c1.05,0.04,2.35,0.09,3.88,0.14
				c1.52,0.07,3.26,0.15,5.21,0.24c3.16,0.16,6.86,0.38,10.99,0.67C1406.23,199.3,1405.63,196.5,1405.04,193.7z"/>
			<path class="st1" d="M1633.52,297.12c-0.22-0.5-0.53-1.26-0.98-2.22c-0.86-1.95-2.18-4.79-4.07-8.28
				c-0.47-0.88-0.94-1.82-1.49-2.77c-0.55-0.95-1.13-1.94-1.74-2.98c-0.6-1.04-1.24-2.12-1.92-3.22c-0.7-1.09-1.43-2.22-2.18-3.39
				c-1.48-2.37-3.22-4.75-5.03-7.31c-0.88-1.3-1.89-2.54-2.9-3.84c-1.02-1.29-2.02-2.65-3.13-3.97
				c-4.34-5.35-9.43-10.86-15.16-16.37c-5.74-5.5-12.18-10.94-19.23-16.07c-7.05-5.13-14.7-9.96-22.81-14.27
				c-8.1-4.32-16.63-8.14-25.36-11.38c-8.75-3.2-17.69-5.82-26.6-7.84c-8.91-2-17.79-3.39-26.4-4.23
				c-6.14-0.58-12.14-0.91-17.94-0.99c0.23,1.54,0.45,3.03,0.67,4.5c0.87,5.78,1.69,11.13,2.47,16.07
				c3.77,0.69,7.61,1.44,11.49,2.25c7.81,1.66,15.79,3.61,23.79,5.85c7.99,2.27,16.01,4.86,23.89,7.77
				c15.77,5.82,30.97,12.99,44.72,20.84c6.88,3.92,13.39,8.01,19.47,12.1c6.07,4.1,11.75,8.18,16.9,12.12
				c1.32,0.96,2.54,1.97,3.77,2.92c1.23,0.96,2.43,1.9,3.58,2.84c1.16,0.94,2.29,1.85,3.39,2.74c1.11,0.88,2.13,1.81,3.17,2.65
				c1.03,0.86,2.03,1.69,3,2.49c0.94,0.83,1.85,1.62,2.74,2.38c0.89,0.76,1.74,1.49,2.56,2.19c0.81,0.71,1.58,1.39,2.3,2.03
				c1.47,1.29,2.79,2.44,3.94,3.44c1.12,1.03,2.1,1.89,2.9,2.59c0.79,0.71,1.42,1.23,1.84,1.59c0.42,0.36,0.64,0.54,0.64,0.54
				S1633.73,297.62,1633.52,297.12z"/>
		</g>
	</g>
</g>
<g>
	<path d="M767.87,108.31c-6.93-4.56-15.63-6.84-26.1-6.84c-6.09,0-12.17,0.76-18.25,2.28c-6.08,1.52-11.83,3.8-17.24,6.84
		c-3.72,30.08-7.78,59.74-12.17,88.96c-4.39,29.23-8.96,57.2-13.68,83.89h-2.54c-1.35-5.4-3.29-13-5.83-22.81
		c-2.53-9.79-5.49-20.95-8.87-33.46c-3.38-12.49-7.09-26.1-11.15-40.81c-4.05-14.7-8.29-29.65-12.67-44.86
		c-2.03-7.09-6.84-12.42-14.44-15.96c-7.61-3.55-16.82-5.33-27.63-5.33c-8.79,0-16.31,0.94-22.56,2.79
		c-6.26,1.86-12.25,4.48-17.99,7.86c-4.06,15.89-8.2,31.68-12.42,47.39c-4.23,15.72-8.2,30.41-11.91,44.1
		c-3.73,13.69-6.93,25.94-9.63,36.75c-2.71,10.82-4.74,18.93-6.08,24.33h-2.03c-0.68-4.05-1.77-9.71-3.3-16.98
		c-1.52-7.26-3.29-16.81-5.32-28.64c-2.03-11.83-4.31-26.19-6.84-43.09c-2.54-16.89-5.5-37.87-8.87-61.53
		c-1.69-11.82-5.92-20.19-12.67-25.09c-6.76-4.89-15.55-6.51-26.36-6.51c-3.67,0-12.49,0-21.29,0H407.1h-47.04V78.66
		c0-13.86-3.3-23.4-9.89-28.64c-6.59-5.23-17.32-7.86-32.19-7.86c-7.1,0-13.69,0.59-19.77,1.77c-6.08,1.19-10.98,2.28-14.7,3.29
		v127.21c-0.33-0.93-0.66-1.86-1.01-2.77c-6.08-16.04-14.45-29.48-25.09-40.29c-10.65-10.82-23.24-18.92-37.77-24.33
		c-14.54-5.4-30.08-8.11-46.63-8.11c-10.48,0-20.11,1.1-28.89,3.29c-8.79,2.2-16.56,4.82-23.32,7.86V52.3
		c0-14.19-3.29-23.82-9.89-28.9c-6.59-5.07-17.49-7.6-32.69-7.6c-7.44,0-14.2,0.51-20.28,1.52c-6.08,1.02-10.98,2.03-14.7,3.04
		v273.22c0,15.89,7.27,28.73,21.8,38.53c10.14,7.1,22.81,13.18,38.02,18.25c15.21,5.07,33.46,7.61,54.75,7.61
		c20.27,0,38.6-2.79,55-8.37c16.39-5.57,30.41-13.85,42.07-24.84c11.66-10.98,20.7-24.58,27.12-40.8c0.56-1.41,1.08-2.85,1.59-4.3
		c0.83,26.9,8.74,46.51,23.74,58.79c15.88,13,38.02,19.52,66.4,19.52c22.98,0,39.11-3.81,48.41-11.41
		c9.29-7.6,13.94-17.31,13.94-29.14c0-5.75-1.01-10.82-3.04-15.21c-2.03-4.38-4.56-8.28-7.61-11.66c-4.05,1.7-8.96,3.13-14.7,4.31
		c-5.75,1.19-11.15,1.78-16.22,1.78c-10.82,0-19.26-2.11-25.34-6.34c-6.09-4.22-9.12-11.07-9.12-20.53v-98.34h51.2
		c3.32,0,6.37-0.46,9.16-1.32c0.66,3.27,1.29,6.33,1.85,9.1c4.38,21.63,8.16,38.19,13.07,59.14c4.89,20.96,9.88,40.22,14.95,57.79
		c5.07,17.58,9.46,30.41,13.18,38.53c3.04,6.76,9.13,11.84,18.25,15.21c9.12,3.37,19.76,5.07,31.93,5.07
		c19.94,0,34.47-4.06,43.6-12.17c2.03-6.75,4.73-15.37,8.11-25.85c3.38-10.47,6.92-21.96,10.65-34.47
		c3.72-12.5,7.43-25.35,11.15-38.53c3.71-13.18,7.09-26.02,10.14-38.52c2.36,12.16,5.23,24.58,8.62,37.26
		c3.37,12.67,6.84,24.84,10.39,36.49c3.55,11.66,7.01,22.39,10.39,32.19c3.37,9.81,6.25,18.09,8.62,24.84
		c4.39,12.51,19.43,18.76,45.11,18.76c10.14,0,19.6-1.1,28.39-3.3c8.78-2.2,15.03-5.15,18.75-8.87c2.36-6.08,5.32-14.86,8.87-26.36
		c3.55-11.48,7.17-24.16,10.9-38.02c3.72-13.85,7.43-28.3,11.16-43.34c3.71-15.03,7.01-29.31,9.88-42.83
		c2.87-13.51,5.24-25.67,7.1-36.49c1.85-10.82,2.79-18.76,2.79-23.83C778.26,120.73,774.79,112.87,767.87,108.31z M197.09,279.39
		c-9.97,11.49-23.4,17.24-40.3,17.24c-8.11,0-15.21-0.84-21.29-2.54c-6.08-1.69-11.15-3.88-15.21-6.59V171.42
		c5.4-3.37,11.23-6.16,17.49-8.36c6.25-2.19,13.26-3.29,21.04-3.29c16.22,0,29.15,5.41,38.78,16.22
		c9.63,10.82,14.44,28.06,14.44,51.71C212.05,250.67,207.06,267.91,197.09,279.39z"/>
	<g>
		<path class="st0" d="M380.91,218.69c0,0-0.34,0.22-0.99,0.63c-0.66,0.41-1.63,1.03-2.93,1.78c-1.3,0.75-2.91,1.67-4.83,2.68
			c-1.92,1.04-4.14,2.17-6.66,3.38c-5.03,2.45-11.25,5.2-18.54,7.99c-3.63,1.44-7.56,2.76-11.71,4.19
			c-4.16,1.39-8.57,2.71-13.2,4.04c-9.27,2.64-19.47,4.96-30.41,6.85c-10.93,1.88-22.61,3.23-34.78,3.92
			c-12.17,0.63-24.83,0.6-37.69-0.4c-12.85-1.01-25.9-2.84-38.78-5.71c-12.87-2.89-25.56-6.73-37.7-11.47
			c-12.14-4.72-23.67-10.46-34.33-16.79c-10.66-6.33-20.41-13.31-29.08-20.54c-2.14-1.85-4.3-3.58-6.31-5.45
			c-2.01-1.86-4-3.67-5.91-5.5c-1.86-1.88-3.69-3.72-5.48-5.53c-1.78-1.81-3.44-3.69-5.07-5.5c-0.81-0.91-1.62-1.81-2.41-2.7
			c-0.76-0.92-1.52-1.82-2.27-2.72c-1.48-1.8-2.97-3.51-4.32-5.27c-1.33-1.77-2.62-3.49-3.88-5.17c-0.62-0.84-1.24-1.66-1.84-2.47
			c-0.57-0.84-1.14-1.67-1.69-2.48c-2.2-3.26-4.29-6.25-6-9.2c-1.76-2.9-3.39-5.52-4.68-8.03c-1.34-2.47-2.53-4.65-3.5-6.6
			c-0.95-1.96-1.73-3.64-2.35-5c-0.63-1.35-1.08-2.42-1.4-3.12c-0.31-0.71-0.47-1.07-0.47-1.07s0.31,0.26,0.9,0.76
			c0.59,0.5,1.48,1.23,2.6,2.22c1.13,0.98,2.51,2.18,4.09,3.61c1.64,1.39,3.52,2.98,5.58,4.77c2.06,1.8,4.39,3.73,6.92,5.81
			c0.63,0.52,1.27,1.05,1.93,1.59c0.65,0.55,1.3,1.11,2,1.65c1.38,1.09,2.8,2.22,4.27,3.39c2.9,2.37,6.11,4.73,9.4,7.27
			c1.68,1.23,3.4,2.48,5.16,3.77c0.88,0.64,1.76,1.29,2.66,1.95c0.92,0.63,1.85,1.26,2.79,1.9c1.9,1.25,3.72,2.64,5.71,3.9
			c1.96,1.28,3.95,2.59,5.97,3.92c2.05,1.27,4.14,2.57,6.26,3.88c2.11,1.31,4.32,2.54,6.51,3.85c8.84,5.1,18.33,10.04,28.35,14.58
			c10.02,4.54,20.57,8.71,31.5,12.33c10.93,3.62,22.22,6.73,33.67,9.29c11.45,2.57,23.07,4.54,34.61,6.08
			c11.55,1.5,23.04,2.51,34.23,3.18c22.4,1.27,43.62,1.05,61.98,0.3c9.18-0.36,17.64-0.88,25.17-1.42c7.54-0.52,14.14-1.11,19.6-1.6
			c5.46-0.51,9.78-0.95,12.74-1.25C379.33,218.87,380.91,218.69,380.91,218.69z"/>
		<g>
			<path class="st1" d="M425.87,196.45c-5.23,1.3-9.86,2.63-13.81,3.9c-5.33,1.69-9.44,3.26-12.21,4.4
				c-1.39,0.55-2.44,1.04-3.14,1.36c-0.7,0.32-1.06,0.49-1.06,0.49s1.6,0.03,4.57,0.13c1.48,0.05,3.3,0.12,5.44,0.2
				c2.13,0.1,4.58,0.21,7.32,0.34c4.43,0.23,9.63,0.53,15.44,0.94C427.55,204.31,426.71,200.39,425.87,196.45z"/>
			<path class="st1" d="M746.73,341.69c-0.31-0.71-0.75-1.77-1.38-3.12c-1.21-2.74-3.06-6.72-5.72-11.63
				c-0.66-1.23-1.32-2.56-2.09-3.89c-0.78-1.33-1.59-2.73-2.44-4.18c-0.84-1.46-1.74-2.97-2.69-4.53c-0.99-1.53-2.01-3.12-3.06-4.76
				c-2.07-3.33-4.53-6.67-7.07-10.26c-1.24-1.82-2.66-3.57-4.07-5.4c-1.43-1.81-2.84-3.72-4.39-5.58
				c-6.1-7.52-13.24-15.26-21.29-22.99c-8.06-7.72-17.1-15.36-27-22.57c-9.9-7.21-20.65-13.99-32.03-20.04
				c-11.37-6.06-23.35-11.44-35.62-15.98c-12.28-4.5-24.85-8.17-37.36-11.01c-12.52-2.81-24.98-4.76-37.08-5.94
				c-8.62-0.81-17.05-1.27-25.19-1.39c0.32,2.16,0.64,4.26,0.94,6.32c1.22,8.11,2.37,15.63,3.47,22.57
				c5.3,0.96,10.68,2.02,16.13,3.15c10.96,2.33,22.17,5.07,33.41,8.22c11.23,3.19,22.48,6.83,33.56,10.91
				c22.14,8.17,43.49,18.24,62.81,29.26c9.66,5.51,18.81,11.24,27.35,17c8.53,5.76,16.5,11.49,23.74,17.03
				c1.85,1.35,3.56,2.77,5.3,4.11c1.72,1.35,3.41,2.67,5.03,3.99c1.63,1.32,3.22,2.6,4.77,3.85c1.56,1.24,2.99,2.54,4.46,3.72
				c1.45,1.21,2.85,2.37,4.21,3.5c1.31,1.17,2.6,2.28,3.85,3.34c1.25,1.07,2.45,2.09,3.59,3.07c1.13,1,2.21,1.95,3.24,2.86
				c2.07,1.81,3.92,3.43,5.53,4.84c1.58,1.44,2.95,2.65,4.07,3.63c1.11,0.99,2,1.72,2.58,2.23c0.59,0.5,0.89,0.76,0.89,0.76
				S747.03,342.4,746.73,341.69z"/>
		</g>
	</g>
</g>
</svg>
